<svg width="538.809" height="241" viewBox="0 0 538.809 241" xmlns="http://www.w3.org/2000/svg" xmlns:xlink="http://www.w3.org/1999/xlink" overflow="hidden"><defs><linearGradient x1="0.5" x2="0.5" y2="1" gradientUnits="objectBoundingBox" id="linear-gradient"><stop offset="0" stop-color="#D8F3EA"/><stop offset="1" stop-color="#D8F3EA" stop-opacity="0"/></linearGradient></defs><g id="Grupo_329" transform="translate(-1187.02 -206)"><g id="Grupo_318" opacity="0.31"><line x1="0" y1="0" x2="533" y2="0" id="Línea_1" stroke="#ABABAB" fill="none" transform="translate(1188.5 206.5)"/><line x1="0" y1="0" x2="533" y2="0" id="Línea_2" stroke="#ABABAB" fill="none" transform="translate(1188.5 266.5)"/><line x1="0" y1="0" x2="533" y2="0" id="Línea_3" stroke="#ABABAB" fill="none" transform="translate(1188.5 326.5)"/><line x1="0" y1="0" x2="533" y2="0" id="Línea_4" stroke="#ABABAB" fill="none" transform="translate(1188.5 386.5)"/><line x1="0" y1="0" x2="533" y2="0" id="Línea_5" stroke="#ABABAB" fill="none" transform="translate(1188.5 446.5)"/></g><path d="M9122.5 335.769C9122.5 335.769 9133.89 412.204 9198.93 412.204 9263.97 412.204 9239.57 307.022 9304.12 307.022 9368.67 307.022 9354.66 392.638 9389.73 392.638 9424.81 392.638 9467.01 275.185 9534.83 392.638 9602.64 510.091 9658.47 392.638 9658.47 392.638L9658.47 516.869 9122.5 516.869Z" id="Trazado_8443" fill="url(#linear-gradient)" transform="translate(-7934 -70)"/><path d="M9122.5 335.769C9122.5 335.769 9133.89 412.204 9198.93 412.204 9263.97 412.204 9239.57 307.022 9304.12 307.022 9368.67 307.022 9354.66 392.638 9389.73 392.638 9424.81 392.638 9467.01 275.185 9534.83 392.638 9602.64 510.091 9658.47 392.638 9658.47 392.638" id="Trazado_8442" stroke="#2ABFB5" stroke-width="3" fill="none" transform="translate(-7934 -70)"/><g id="Elipse_61" stroke="#2ABFB5" stroke-width="3" fill="#FFFFFF" transform="translate(1653 363)"><circle cx="11" cy="11" r="11" stroke="none"/><circle cx="11" cy="11" r="9.5" fill="none"/></g><circle cx="5" cy="5" r="5" id="Elipse_62" fill="#2ABFB5" transform="translate(1659 369)"/><text id="_499.95" fill="#2ABFB5" font-family="SegoeUI,Segoe UI" font-size="18" transform="translate(1633 406)"><tspan x="0" y="0">$499.95</tspan></text></g></svg>