<svg width="821" height="321" xmlns="http://www.w3.org/2000/svg" xmlns:xlink="http://www.w3.org/1999/xlink" overflow="hidden"><defs><clipPath id="clip0"><rect x="177" y="341" width="821" height="321"/></clipPath><clipPath id="clip1"><rect x="178" y="341" width="820" height="321"/></clipPath><clipPath id="clip2"><rect x="178" y="341" width="820" height="321"/></clipPath><clipPath id="clip3"><rect x="178" y="341" width="820" height="588"/></clipPath></defs><g clip-path="url(#clip0)" transform="translate(-177 -341)"><g clip-path="url(#clip1)"><g clip-path="url(#clip2)"><g clip-path="url(#clip3)"><path d="M117.141 58.5703C117.141 90.9178 90.9178 117.141 58.5703 117.141 26.2228 117.141-8.54482e-07 90.9178-8.54482e-07 58.5703-8.54482e-07 26.2228 26.2228-8.54482e-07 58.5703-8.54482e-07 90.9178-8.54482e-07 117.141 26.2228 117.141 58.5703Z" fill="#D33367" transform="matrix(1 0 0 1.00251 295.439 458.729)"/><path d="M68.7692 34.3846C68.7692 53.3747 53.3747 68.7692 34.3846 68.7692 15.3945 68.7692-1.67845e-06 53.3747-1.67845e-06 34.3846-1.67845e-06 15.3945 15.3945-1.67845e-06 34.3846-1.67845e-06 53.3747-1.67845e-06 68.7692 15.3945 68.7692 34.3846Z" fill="#2D374C" transform="matrix(1 0 0 1.00251 319.917 483.269)"/><path d="M36.1336 18.0668C36.1336 28.0448 28.0448 36.1336 18.0668 36.1336 8.08877 36.1336-5.64568e-07 28.0448-5.64568e-07 18.0668-5.64568e-07 8.08877 8.08877-5.64568e-07 18.0668-5.64568e-07 28.0448-5.64568e-07 36.1336 8.08877 36.1336 18.0668Z" fill="#36868E" transform="matrix(1 0 0 1.00251 336.235 499.627)"/><path d="M117.141 58.5703C117.141 90.9178 90.9178 117.141 58.5703 117.141 26.2228 117.141-8.54482e-07 90.9178-8.54482e-07 58.5703-8.54482e-07 26.2228 26.2228-8.54482e-07 58.5703-8.54482e-07 90.9178-8.54482e-07 117.141 26.2228 117.141 58.5703Z" fill="#FF8B61" transform="matrix(1 0 0 1.00251 529.43 458.729)"/><path d="M68.7692 34.3846C68.7692 53.3747 53.3747 68.7692 34.3846 68.7692 15.3945 68.7692-1.67845e-06 53.3747-1.67845e-06 34.3846-1.67845e-06 15.3945 15.3945-1.67845e-06 34.3846-1.67845e-06 53.3747-1.67845e-06 68.7692 15.3945 68.7692 34.3846Z" fill="#2D374C" transform="matrix(1 0 0 1.00251 553.907 483.269)"/><path d="M36.1336 18.0668C36.1336 28.0448 28.0448 36.1336 18.0668 36.1336 8.08877 36.1336-5.64568e-07 28.0448-5.64568e-07 18.0668-5.64568e-07 8.08877 8.08877-5.64568e-07 18.0668-5.64568e-07 28.0448-5.64568e-07 36.1336 8.08877 36.1336 18.0668Z" fill="#F1E3CF" transform="matrix(1 0 0 1.00251 570.225 499.627)"/><path d="M117.141 58.5703C117.141 90.9178 90.9178 117.141 58.5703 117.141 26.2228 117.141-8.54482e-07 90.9178-8.54482e-07 58.5703-8.54482e-07 26.2228 26.2228-8.54482e-07 58.5703-8.54482e-07 90.9178-8.54482e-07 117.141 26.2228 117.141 58.5703Z" fill="#FF8B61" transform="matrix(1 0 0 1.00251 763.712 693.6)"/><path d="M68.7692 34.3846C68.7692 53.3747 53.3747 68.7692 34.3846 68.7692 15.3945 68.7692-1.67845e-06 53.3747-1.67845e-06 34.3846-1.67845e-06 15.3945 15.3945-1.67845e-06 34.3846-1.67845e-06 53.3747-1.67845e-06 68.7692 15.3945 68.7692 34.3846Z" fill="#2D374C" transform="matrix(1 0 0 1.00251 788.19 717.554)"/><path d="M36.1336 18.0668C36.1336 28.0448 28.0448 36.1336 18.0668 36.1336 8.08877 36.1336-5.64568e-07 28.0448-5.64568e-07 18.0668-5.64568e-07 8.08877 8.08877-5.64568e-07 18.0668-5.64568e-07 28.0448-5.64568e-07 36.1336 8.08877 36.1336 18.0668Z" fill="#F1E3CF" transform="matrix(1 0 0 1.00251 804.507 733.913)"/><path d="M28.7817 57.5633C44.6773 57.5633 57.5633 44.6773 57.5633 28.7817 57.5633 12.886 44.6773-4.11982e-07 28.7817-4.11982e-07 12.886-4.11982e-07-4.11982e-07 12.886-4.11982e-07 28.7817-4.11982e-07 44.6773 12.886 57.5633 28.7817 57.5633Z" fill="#D33367" transform="matrix(6.12323e-17 1.00251 -1 6.1386e-17 763.568 518.313)"/><path d="M28.7817 57.5633C44.6773 57.5633 57.5633 44.6773 57.5633 28.7817 57.5633 12.886 44.6773-4.11982e-07 28.7817-4.11982e-07 12.886-4.11982e-07-4.11982e-07 12.886-4.11982e-07 28.7817-4.11982e-07 44.6773 12.886 57.5633 28.7817 57.5633Z" fill="#FF8B61" transform="matrix(6.12323e-17 1.00251 -1 6.1386e-17 704.278 518.313)"/><path d="M28.7817 57.5633C44.6773 57.5633 57.5633 44.6773 57.5633 28.7817 57.5633 12.886 44.6773-4.11982e-07 28.7817-4.11982e-07 12.886-4.11982e-07-4.11982e-07 12.886-4.11982e-07 28.7817-4.11982e-07 44.6773 12.886 57.5633 28.7817 57.5633Z" fill="#FF8B61" transform="matrix(6.12323e-17 1.00251 -1 6.1386e-17 763.568 460.028)"/><path d="M0 58.9993 29.3577 58.9993C45.6497 59.0777 58.9205 45.934 58.999 29.642 59.0774 13.35 45.9337 0.0791069 29.6416 0.000683372 13.3496-0.0777401 0.0787636 13.066 0.000340054 29.358 0.000112762 29.4052-1.15796e-06 29.4524-1.705e-06 29.4996Z" fill="#36868E" transform="matrix(6.12323e-17 1.00251 -1 6.1386e-17 705.574 458.729)"/><path d="M0 0 59.8663 0 59.8663 59.8663 5.79827e-07 59.8663Z" fill="#F1E3CF" transform="matrix(-1 1.22772e-16 -1.22465e-16 -1.00251 852.36 547.599)"/><path d="M0 36.5453 36.5453 36.5453 36.5453 0 0 0Z" fill="#36868E" transform="matrix(-0.706222 0.707995 -0.706222 -0.707995 847.795 517.741)"/><path d="M0 35.3996 35.3996 35.3996C35.3996 15.8489 19.5506 1.52586e-06 1.52586e-06 1.52586e-06Z" fill="#D33367" transform="matrix(-1 1.22772e-16 -1.22465e-16 -1.00251 869.629 505.472)"/><path d="M0 0 0 35.3996C19.5506 35.3996 35.3996 19.5506 35.3996 1.52586e-06Z" fill="#D33367" transform="matrix(-1 1.22772e-16 -1.22465e-16 -1.00251 869.629 564.911)"/><path d="M35.3996 0 0 0C7.10534e-15 19.5506 15.8489 35.3996 35.3996 35.3996Z" fill="#D33367" transform="matrix(-1 1.22772e-16 -1.22465e-16 -1.00251 811.201 564.911)"/><path d="M35.3996 35.3996 35.3996 0C15.8489 0 1.52586e-06 15.8489 1.52586e-06 35.3996Z" fill="#D33367" transform="matrix(-1 1.22772e-16 -1.22465e-16 -1.00251 811.201 505.472)"/><path d="M0 58.873 58.8559 58.8519 58.873 0 0.0210261 0.0210261Z" fill="#2D374C" transform="matrix(-0.706222 0.707995 -0.706222 -0.707995 981.402 869.691)"/><path d="M0 29.6096 29.5876 29.6096 29.5876 0 0 0Z" fill="#36868E" transform="matrix(-1 1.22772e-16 -1.22465e-16 -1.00251 954.616 884.533)"/><path d="M58.5703-122.856C90.9178-122.856 117.141-149.078 117.141-181.426 117.141-213.773 90.9179-239.997 58.5703-239.997L0-239.997 0-181.427C-0.000552278-149.079 26.2218-122.856 58.5693-122.856 58.5696-122.856 58.57-122.856 58.5703-122.856Z" fill="#F1E3CF" transform="matrix(1 0 0 1.00251 646.57 581.893)"/><path d="M35.0246-169.948C54.3681-169.948 70.0492-185.629 70.0492-204.973 70.0486-224.316 54.3679-239.997 35.0246-239.997L0-239.997 0-204.973C0-185.629 15.681-169.948 35.0246-169.948Z" fill="#2D374C" transform="matrix(1 0 0 1.00251 646.57 581.893)"/><path d="M82.494-120.537C102.244-120.537 118.254-136.548 118.254-156.298 118.253-176.047 102.243-192.057 82.494-192.058 62.7444-192.058 46.734-176.048 46.7334-156.298 46.7329-136.548 62.743-120.537 82.493-120.537 82.4934-120.537 82.4937-120.537 82.494-120.537Z" fill="#36868E" transform="matrix(1 0 0 1.00251 622.648 557.291)"/><path d="M98.0438-119.814C109.605-119.814 118.978-129.186 118.978-140.747 118.978-152.309 109.605-161.681 98.0438-161.681 86.4824-161.682 77.1096-152.31 77.1091-140.748 77.1091-140.748 77.1091-140.748 77.1091-140.747 77.1091-129.186 86.4814-119.814 98.0428-119.814 98.0432-119.814 98.0435-119.814 98.0438-119.814Z" fill="#2D374C" transform="matrix(1 0 0 1.00251 607.098 541.702)"/><path d="M58.8653 117.142 117.142 117.142 117.142 58.8653C117.142 26.3549 90.7867 1.12914e-06 58.2763 1.12914e-06L0 0 0 58.2763C0 90.7867 26.3549 117.142 58.8653 117.142Z" fill="#36868E" transform="matrix(6.12323e-17 1.00251 -1 6.1386e-17 880.854 341.294)"/><path d="M34.4356 68.8722C53.4541 68.9747 68.9548 53.6402 69.0573 34.6217 69.1597 15.6031 53.8253 0.10249 34.8067 2.71234e-06 34.683-0.000663946 34.5593-0.000663946 34.4356 2.71234e-06L0 0 0 34.4366C0 53.4548 15.4173 68.8722 34.4356 68.8722Z" fill="#2D374C" transform="matrix(6.12323e-17 1.00251 -1 6.1386e-17 857.896 365.489)"/><path d="M35.1426 58.5703 58.5703 58.5703 58.5703 35.1426C58.5703 15.7343 42.837 0.000553823 23.4287 1.55638e-06L0 0 0 23.4287C0.000552267 42.837 15.7343 58.5703 35.1426 58.5703Z" fill="#FF8B61" transform="matrix(6.12323e-17 1.00251 -1 6.1386e-17 822.283 400.307)"/><path d="M58.8653 0 117.142 0 117.142 58.2763C117.142 90.7867 90.7867 117.142 58.2763 117.142L0 117.142 0 58.8653C-7.10534e-15 26.3549 26.3549 1.12914e-06 58.8653 1.12914e-06Z" fill="#D33367" transform="matrix(6.12323e-17 1.00251 -1 6.1386e-17 997.995 341.294)"/><path d="M34.4356 0C53.4541-0.102487 68.9548 15.232 69.0573 34.2505 69.1597 53.269 53.8253 68.7697 34.8067 68.8722 34.683 68.8728 34.5593 68.8728 34.4356 68.8722L0 68.8722 0 34.4356C0 15.4173 15.4173 8.23965e-07 34.4356 8.23965e-07Z" fill="#2D374C" transform="matrix(6.12323e-17 1.00251 -1 6.1386e-17 972.683 365.489)"/><path d="M35.1426 0 58.5703 0 58.5703 23.4287C58.5697 42.8367 42.8367 58.5698 23.4287 58.5703L0 58.5703 0 35.1426C-7.10534e-15 15.7339 15.7339 1.55638e-06 35.1426 1.55638e-06Z" fill="#FF8B61" transform="matrix(6.12323e-17 1.00251 -1 6.1386e-17 997.995 400.307)"/><path d="M58.5703 117.142C90.9181 117.142 117.141 90.9186 117.141 58.5708 117.141 26.223 90.9181 1.46494e-08 58.5703-3.92296e-07L0 0 0 58.5703C-0.000552278 90.9178 26.2218 117.141 58.5693 117.142 58.5696 117.142 58.57 117.142 58.5703 117.142Z" fill="#F1E3CF" transform="matrix(-1 1.22772e-16 -1.22465e-16 -1.00251 997.995 811.035)"/><path d="M35.0246 70.0492C54.3681 70.0492 70.0492 54.3681 70.0492 35.0246 70.0492 15.681 54.3681 1.52586e-06 35.0246 1.52586e-06L0 0 0 35.0246C0 54.3681 15.681 70.0492 35.0246 70.0492Z" fill="#D33367" transform="matrix(-1 1.22772e-16 -1.22465e-16 -1.00251 997.995 811.035)"/><path d="M35.7606 71.5211C55.5106 71.5211 71.5211 55.5106 71.5211 35.7606 71.5211 16.0106 55.5106 1.5869e-06 35.7606 1.5869e-06 16.0106 1.5869e-06 1.5869e-06 16.0106 1.5869e-06 35.7606 1.5869e-06 55.5106 16.0106 71.5211 35.7606 71.5211Z" fill="#36868E" transform="matrix(-1 1.22772e-16 -1.22465e-16 -1.00251 975.184 787.578)"/><path d="M20.9338 41.8675C32.4951 41.8675 41.8675 32.4951 41.8675 20.9338 41.8675 9.37236 32.4951 1.52586e-08 20.9338 1.52586e-08 9.37236 1.52586e-08 1.52586e-08 9.37236 1.52586e-08 20.9338 1.52586e-08 32.4951 9.37236 41.8675 20.9338 41.8675Z" fill="#2D374C" transform="matrix(-1 1.22772e-16 -1.22465e-16 -1.00251 960.359 772.714)"/><path d="M98.4328 49.1934C98.4328 76.3622 76.3979 98.3868 49.2164 98.3868 22.0349 98.3868-9.46034e-07 76.3622-9.46034e-07 49.1934-9.46034e-07 22.0246 22.0349 2.44138e-07 49.2164 2.44138e-07 76.3979 2.44138e-07 98.4328 22.0246 98.4328 49.1934Z" fill="#F1E3CF" transform="matrix(1 0 0 1.00251 304.644 585.421)"/><path d="M179.022 0C179.062 32.1486 153.032 58.2425 120.884 58.2823 120.844 26.1337 146.873 0.0397896 179.022 1.05618e-06Z" fill="#D33367" transform="matrix(1 0 0 1.00251 233.265 576.165)"/><path d="M56.5843 0 58.2843 0 58.2843 1.69298C58.2462 32.9055 32.9126 58.1774 1.70006 58.1393L0 58.1393 0 56.4453C0.0386357 25.2332 25.3722-0.0381315 56.5843-8.54482e-07Z" fill="#36868E" transform="matrix(6.12323e-17 1.00251 -1 6.1386e-17 353.286 576.165)"/><path d="M56.4453 120.59 58.1383 120.59 58.1383 122.29C58.1753 153.501 32.9044 178.833 1.69298 178.872L0 178.872 0 177.172C-0.0370252 145.96 25.2339 120.628 56.4453 120.59Z" fill="#D33367" transform="matrix(1 0 0 1.00251 295.146 514.28)"/><path d="M56.5843 0 58.2843 0 58.2843 1.69298C58.2457 32.9052 32.9122 58.1764 1.69998 58.1383L0 58.1383 0 56.4453C0.0386357 25.2332 25.3722-0.0381315 56.5843-8.54482e-07Z" fill="#36868E" transform="matrix(6.12323e-17 1.00251 -1 6.1386e-17 412.288 635.172)"/><path d="M98.4328 49.2164C98.4328 76.3979 76.3979 98.4328 49.2164 98.4328 22.0349 98.4328-9.46034e-07 76.3979-9.46034e-07 49.2164-9.46034e-07 22.0349 22.0349-9.46034e-07 49.2164-9.46034e-07 76.3979-9.46034e-07 98.4328 22.0349 98.4328 49.2164Z" fill="#F1E3CF" transform="matrix(1 0 0 1.00251 655.941 585.267)"/><path d="M56.8653 178.569C25.46 178.569 0.000553416 153.111 1.13793e-06 121.706 1.13207e-06 121.705 1.12914e-06 121.705 1.12914e-06 121.705L0 119.999 1.70598 119.999C33.1113 119.999 58.5703 145.458 58.5703 176.863 58.5703 176.863 58.5703 176.864 58.5703 176.864L58.5703 178.57Z" fill="#D33367" transform="matrix(1 0 0 1.00251 646.57 514.583)"/><path d="M176.864 119.999 178.57 119.999 178.57 121.705C178.57 153.11 153.112 178.569 121.707 178.57 121.706 178.57 121.705 178.57 121.705 178.57L119.999 178.57 119.999 176.864C119.998 145.459 145.457 119.999 176.862 119.999 176.863 119.999 176.863 119.999 176.864 119.999Z" fill="#36868E" transform="matrix(1 0 0 1.00251 585.142 514.583)"/><path d="M121.705 58.5703 119.999 58.5703 119.999 56.8653C119.998 25.46 145.457 0.000553412 176.862 1.12914e-06 176.863 1.11741e-06 176.863 1.11741e-06 176.864 1.12914e-06L178.57 0 178.57 1.70598C178.57 33.1113 153.111 58.5703 121.706 58.5703 121.705 58.5703 121.705 58.5703 121.705 58.5703Z" fill="#D33367" transform="matrix(1 0 0 1.00251 585.142 576.165)"/><path d="M1.70598 0C33.1113-4.85605e-09 58.5703 25.459 58.5703 56.8643 58.5703 56.8647 58.5703 56.865 58.5703 56.8653L58.5703 58.5713 56.8653 58.5713C25.46 58.5719 0.000553412 33.1133 1.12914e-06 1.70798 1.11741e-06 1.70731 1.11741e-06 1.70664 1.12914e-06 1.70598L0 0Z" fill="#36868E" transform="matrix(1 0 0 1.00251 646.57 576.165)"/><path d="M98.4328 49.2164C98.4328 76.3979 76.3979 98.4328 49.2164 98.4328 22.0349 98.4328-9.46034e-07 76.3979-9.46034e-07 49.2164-9.46034e-07 22.0349 22.0349-9.46034e-07 49.2164-9.46034e-07 76.3979-9.46034e-07 98.4328 22.0349 98.4328 49.2164Z" fill="#F1E3CF" transform="matrix(6.12323e-17 1.00251 -1 6.1386e-17 286.068 702.994)"/><path d="M56.8653 58.5703C25.46 58.5709 0.000553416 33.1123 1.13793e-06 1.70698 1.13207e-06 1.70665 1.12914e-06 1.70631 1.12914e-06 1.70598L0 0 1.70598 0C33.1113-4.85605e-09 58.5703 25.459 58.5703 56.8643 58.5703 56.8647 58.5703 56.865 58.5703 56.8653L58.5703 58.5713Z" fill="#D33367" transform="matrix(6.12323e-17 1.00251 -1 6.1386e-17 236.576 693.6)"/><path d="M56.8653 0 58.5713 0 58.5713 1.70598C58.5713 33.1113 33.1123 58.5703 1.70698 58.5703 1.70664 58.5703 1.70631 58.5703 1.70598 58.5703L0 58.5703 0 56.8653C-0.000552283 25.46 25.458 0.000553412 56.8633 1.12914e-06 56.864 1.11741e-06 56.8647 1.11741e-06 56.8653 1.12914e-06Z" fill="#36868E" transform="matrix(6.12323e-17 1.00251 -1 6.1386e-17 236.576 752.317)"/><path d="M1.70598 58.5703 0 58.5703 0 56.8653C-0.000552283 25.46 25.458 0.000553412 56.8633 1.12914e-06 56.864 1.11741e-06 56.8647 1.11741e-06 56.8653 1.12914e-06L58.5713 0 58.5713 1.70598C58.5713 33.1113 33.1123 58.5703 1.70698 58.5703 1.70664 58.5703 1.70631 58.5703 1.70598 58.5703Z" fill="#D33367" transform="matrix(6.12323e-17 1.00251 -1 6.1386e-17 295.146 752.317)"/><path d="M1.70598 0C33.1113-4.85605e-09 58.5703 25.459 58.5703 56.8643 58.5703 56.8647 58.5703 56.865 58.5703 56.8653L58.5703 58.5713 56.8653 58.5713C25.46 58.5719 0.000553412 33.1133 1.12914e-06 1.70798 1.11741e-06 1.70731 1.11741e-06 1.70664 1.12914e-06 1.70598L0 0Z" fill="#36868E" transform="matrix(6.12323e-17 1.00251 -1 6.1386e-17 295.146 693.6)"/><path d="M117.142 0 117.142 117.142 0 117.142C-2.84214e-14 52.4461 52.4461-2.25827e-06 117.142-2.25827e-06Z" fill="#D33367" transform="matrix(1 0 0 1.00251 412.288 341.294)"/><path d="M170.098 103.783 170.098 170.268 103.449 170.268C103.495 133.504 133.334 103.738 170.098 103.783Z" fill="#F1E3CF" transform="matrix(1 0 0 1.00251 359.333 288.033)"/><path d="M207.922 177.492 207.922 207.998 177.338 207.998C177.361 191.129 191.053 177.471 207.922 177.492Z" fill="#2D374C" transform="matrix(1 0 0 1.00251 321.508 250.207)"/><path d="M117.142 0 117.142 117.142 0 117.142C-2.84214e-14 52.4461 52.4461-2.25827e-06 117.142-2.25827e-06Z" fill="#D33367" transform="matrix(6.12323e-17 1.00251 -1 6.1386e-17 997.995 576.165)"/><path d="M66.6492 0 66.6492 66.4852 0 66.4852C0.0458109 29.7214 29.8854-0.0447621 66.6492 6.10344e-08Z" fill="#F1E3CF" transform="matrix(6.12323e-17 1.00251 -1 6.1386e-17 947.34 626.783)"/><path d="M30.5836 0 30.5836 30.5086 0 30.5086C0.0209737 13.6386 13.7136-0.0204461 30.5836 7.78189e-07Z" fill="#2D374C" transform="matrix(6.12323e-17 1.00251 -1 6.1386e-17 911.362 662.94)"/><path d="M117.142 0 117.142 117.142 0 117.142C-2.84214e-14 52.4461 52.4461-2.25827e-06 117.142-2.25827e-06Z" fill="#36868E" transform="matrix(-1 1.22772e-16 -1.22465e-16 -1.00251 295.146 693.6)"/><path d="M66.4852 0 66.4852 66.6492 0 66.6492C-0.0447622 29.8854 29.7214 0.0458124 66.4852 1.52586e-06Z" fill="#F1E3CF" transform="matrix(-1 1.22772e-16 -1.22465e-16 -1.00251 244.491 642.982)"/><path d="M30.5086 0 30.5086 30.5836 0 30.5836C-0.0204469 13.7136 13.6386 0.0209734 30.5086-3.66207e-07Z" fill="#2D374C" transform="matrix(-1 1.22772e-16 -1.22465e-16 -1.00251 208.514 606.824)"/><path d="M117.142 0 117.142 117.142 0 117.142C-2.84214e-14 52.4461 52.4461-2.25827e-06 117.142-2.25827e-06Z" fill="#36868E" transform="matrix(1 0 0 1.00251 763.712 576.165)"/><path d="M170.268 103.447 170.268 170.098 103.783 170.098C103.737 133.333 133.503 103.493 170.268 103.447Z" fill="#F1E3CF" transform="matrix(1 0 0 1.00251 710.585 523.077)"/><path d="M207.998 177.338 207.998 207.922 177.492 207.922C177.471 191.053 191.129 177.361 207.998 177.338Z" fill="#2D374C" transform="matrix(1 0 0 1.00251 672.853 485.157)"/><path d="M58.5703 0C90.9178-1.42107e-14 117.141 26.2228 117.141 58.5703 117.141 90.9178 90.9178 117.141 58.5703 117.141 26.2228 117.141-8.54482e-07 90.9178-8.54482e-07 58.5703-8.54482e-07 26.2228 26.2228-8.54482e-07 58.5703-8.54482e-07Z" fill="#36868E" transform="matrix(1 0 0 1.00251 178.298 341.294)"/><path d="M83.611 48.3534C103.083 48.3534 118.869 64.1388 118.869 83.611 118.869 103.083 103.083 118.869 83.611 118.869 64.1388 118.869 48.3534 103.083 48.3534 83.611 48.3534 64.1388 64.1388 48.3534 83.611 48.3534Z" fill="#F1E3CF" transform="matrix(1 0 0 1.00251 153.545 316.479)"/><path d="M101.999 83.144C112.41 83.1457 120.849 91.5872 120.848 101.999 120.846 112.41 112.404 120.849 101.993 120.848 91.5836 120.846 83.1457 112.408 83.144 101.999 83.1423 91.5872 91.5812 83.1457 101.993 83.144 101.995 83.144 101.997 83.144 101.999 83.144Z" fill="#2D374C" transform="matrix(1 0 0 1.00251 135.736 298.625)"/><path d="M165.438 94.3479 165.438 165.438 94.3479 165.438C94.3484 126.176 126.176 94.3484 165.438 94.3479Z" fill="#D33367" transform="matrix(1 0 0 1.00251 130 292.875)"/><path d="M58.5703 0C90.9178-1.42107e-14 117.141 26.2228 117.141 58.5703 117.141 90.9178 90.9178 117.141 58.5703 117.141 26.2228 117.141-8.54482e-07 90.9178-8.54482e-07 58.5703-8.54482e-07 26.2228 26.2228-8.54482e-07 58.5703-8.54482e-07Z" fill="#36868E" transform="matrix(1 0 0 1.00251 763.712 811.035)"/><path d="M83.611 48.3534C103.083 48.3534 118.869 64.1388 118.869 83.611 118.869 103.083 103.083 118.869 83.611 118.869 64.1388 118.869 48.3534 103.083 48.3534 83.611 48.3534 64.1388 64.1388 48.3534 83.611 48.3534Z" fill="#F1E3CF" transform="matrix(1 0 0 1.00251 738.959 786.22)"/><path d="M101.999 83.144C112.41 83.1457 120.849 91.5872 120.848 101.999 120.846 112.41 112.404 120.849 101.993 120.848 91.5836 120.846 83.1457 112.408 83.144 101.999 83.1423 91.5872 91.5812 83.1457 101.993 83.144 101.995 83.144 101.997 83.144 101.999 83.144Z" fill="#2D374C" transform="matrix(1 0 0 1.00251 721.15 768.367)"/><path d="M165.438 94.3479 165.438 165.438 94.3479 165.438C94.3484 126.176 126.176 94.3484 165.438 94.3479Z" fill="#D33367" transform="matrix(1 0 0 1.00251 715.414 762.617)"/><path d="M28.7817 0C44.6773-3.55267e-15 57.5633 12.886 57.5633 28.7817 57.5633 44.6773 44.6773 57.5633 28.7817 57.5633 12.886 57.5633-4.11982e-07 44.6773-4.11982e-07 28.7817-4.11982e-07 12.886 12.886-4.11982e-07 28.7817-4.11982e-07Z" fill="#FF8B61" transform="matrix(-1 1.22772e-16 -1.22465e-16 -1.00251 353.003 398.708)"/><path d="M28.7817 0C44.6773-3.55267e-15 57.5633 12.886 57.5633 28.7817 57.5633 44.6773 44.6773 57.5633 28.7817 57.5633 12.886 57.5633-4.11982e-07 44.6773-4.11982e-07 28.7817-4.11982e-07 12.886 12.886-4.11982e-07 28.7817-4.11982e-07Z" fill="#D33367" transform="matrix(-1 1.22772e-16 -1.22465e-16 -1.00251 353.003 458.436)"/><path d="M28.7817 0C44.6773-3.55267e-15 57.5633 12.886 57.5633 28.7817 57.5633 44.6773 44.6773 57.5633 28.7817 57.5633 12.886 57.5633-4.11982e-07 44.6773-4.11982e-07 28.7817-4.11982e-07 12.886 12.886-4.11982e-07 28.7817-4.11982e-07Z" fill="#D33367" transform="matrix(-1 1.22772e-16 -1.22465e-16 -1.00251 411.43 398.708)"/><path d="M0 0 29.4996 0C45.7919-7.10534e-15 58.9993 13.2074 58.9993 29.4996 58.9993 45.7919 45.7919 58.9993 29.4996 58.9993 13.2074 58.9993-2.1316e-14 45.7919-3.55267e-14 29.4996Z" fill="#36868E" transform="matrix(-1 1.22772e-16 -1.22465e-16 -1.00251 412.581 458.436)"/><path d="M28.7817 0C44.6773-3.55267e-15 57.5633 12.886 57.5633 28.7817 57.5633 44.6773 44.6773 57.5633 28.7817 57.5633 12.886 57.5633-4.11982e-07 44.6773-4.11982e-07 28.7817-4.11982e-07 12.886 12.886-4.11982e-07 28.7817-4.11982e-07Z" fill="#D33367" transform="matrix(6.12323e-17 -1.00251 1 6.1386e-17 471.722 751.452)"/><path d="M28.7817 0C44.6773-3.55267e-15 57.5633 12.886 57.5633 28.7817 57.5633 44.6773 44.6773 57.5633 28.7817 57.5633 12.886 57.5633-4.11982e-07 44.6773-4.11982e-07 28.7817-4.11982e-07 12.886 12.886-4.11982e-07 28.7817-4.11982e-07Z" fill="#FF8B61" transform="matrix(6.12323e-17 -1.00251 1 6.1386e-17 412.432 751.452)"/><path d="M28.7817 0C44.6773-3.55267e-15 57.5633 12.886 57.5633 28.7817 57.5633 44.6773 44.6773 57.5633 28.7817 57.5633 12.886 57.5633-4.11982e-07 44.6773-4.11982e-07 28.7817-4.11982e-07 12.886 12.886-4.11982e-07 28.7817-4.11982e-07Z" fill="#FF8B61" transform="matrix(6.12323e-17 -1.00251 1 6.1386e-17 471.722 809.737)"/><path d="M0 0 29.3577 0C45.6497-0.0784235 58.9205 13.0653 58.999 29.3573 59.0774 45.6493 45.9337 58.9202 29.6416 58.9986 13.3496 59.077 0.0787636 45.9333 0.000340054 29.6413 0.000112762 29.5941-1.15796e-06 29.5469-1.705e-06 29.4996Z" fill="#36868E" transform="matrix(6.12323e-17 -1.00251 1 6.1386e-17 412.288 811.035)"/><path d="M28.7817 0C44.6773-3.55267e-15 57.5633 12.886 57.5633 28.7817 57.5633 44.6773 44.6773 57.5633 28.7817 57.5633 12.886 57.5633-4.11982e-07 44.6773-4.11982e-07 28.7817-4.11982e-07 12.886 12.886-4.11982e-07 28.7817-4.11982e-07Z" fill="#D33367" transform="matrix(-1 1.22772e-16 -1.22465e-16 -1.00251 235.568 868.743)"/><path d="M28.7817 0C44.6773-3.55267e-15 57.5633 12.886 57.5633 28.7817 57.5633 44.6773 44.6773 57.5633 28.7817 57.5633 12.886 57.5633-4.11982e-07 44.6773-4.11982e-07 28.7817-4.11982e-07 12.886 12.886-4.11982e-07 28.7817-4.11982e-07Z" fill="#FF8B61" transform="matrix(-1 1.22772e-16 -1.22465e-16 -1.00251 235.568 928.471)"/><path d="M28.7817 0C44.6773-3.55267e-15 57.5633 12.886 57.5633 28.7817 57.5633 44.6773 44.6773 57.5633 28.7817 57.5633 12.886 57.5633-4.11982e-07 44.6773-4.11982e-07 28.7817-4.11982e-07 12.886 12.886-4.11982e-07 28.7817-4.11982e-07Z" fill="#FF8B61" transform="matrix(-1 1.22772e-16 -1.22465e-16 -1.00251 293.996 868.743)"/><path d="M0 0 29.4996 0C45.7919-7.10534e-15 58.9993 13.2074 58.9993 29.4996 58.9993 45.7919 45.7919 58.9993 29.4996 58.9993 13.2074 58.9993-2.1316e-14 45.7919-3.55267e-14 29.4996Z" fill="#36868E" transform="matrix(-1 1.22772e-16 -1.22465e-16 -1.00251 295.146 928.471)"/><path d="M0 0 59.8663 0 59.8663 59.8663 5.79827e-07 59.8663Z" fill="#F1E3CF" transform="matrix(-1 1.22772e-16 -1.22465e-16 -1.00251 618.077 782.181)"/><path d="M0 0 36.5453 0 36.5453 36.5453 0 36.5453Z" fill="#36868E" transform="matrix(-0.706222 -0.707995 0.706222 -0.707995 587.705 777.894)"/><path d="M0 0 35.3996 0C35.3996 19.5506 19.5506 35.3996 1.52586e-06 35.3996Z" fill="#D33367" transform="matrix(-1 1.22772e-16 -1.22465e-16 -1.00251 635.345 799.782)"/><path d="M0 35.3996 0 0C19.5506-7.10534e-15 35.3996 15.8489 35.3996 35.3996Z" fill="#D33367" transform="matrix(-1 1.22772e-16 -1.22465e-16 -1.00251 635.345 740.343)"/><path d="M35.3996 35.3996 0 35.3996C0 15.8489 15.8489 1.52586e-06 35.3996 1.52586e-06Z" fill="#D33367" transform="matrix(-1 1.22772e-16 -1.22465e-16 -1.00251 576.918 740.343)"/><path d="M35.3996 0 35.3996 35.3996C15.8489 35.3996 1.52586e-06 19.5506 1.52586e-06 1.52586e-06Z" fill="#D33367" transform="matrix(-1 1.22772e-16 -1.22465e-16 -1.00251 576.918 799.782)"/><path d="M0 0 58.8549 0.0210261 58.873 58.873 0.0210261 58.8549Z" fill="#FF8B61" transform="matrix(-0.706222 -0.707995 0.706222 -0.707995 236.974 559.193)"/><path d="M0 0 29.6367 0.0110136 29.6477 29.6477 0.0110136 29.6367Z" fill="#F1E3CF" transform="matrix(-0.706222 -0.707995 0.706222 -0.707995 236.974 538.498)"/><path d="M0 0 36.4966 0 36.4966 36.4966 1.64793e-06 36.4966Z" fill="#F1E3CF" transform="matrix(-1 1.22772e-16 -1.22465e-16 -1.00251 582.407 394.996)"/><path d="M0 0 36.4966 0 36.4966 36.4966 1.64793e-06 36.4966Z" fill="#F1E3CF" transform="matrix(-1 1.22772e-16 -1.22465e-16 -1.00251 582.407 441.025)"/><path d="M0 0 36.4966 0 36.4966 36.4966 1.64793e-06 36.4966Z" fill="#F1E3CF" transform="matrix(-1 1.22772e-16 -1.22465e-16 -1.00251 629.5 394.996)"/><path d="M0 0 36.4966 0 36.4966 36.4966 1.64793e-06 36.4966Z" fill="#F1E3CF" transform="matrix(-1 1.22772e-16 -1.22465e-16 -1.00251 629.5 441.025)"/><path d="M0 0 17.0708 0 17.0708 17.0708-8.54482e-07 17.0708Z" fill="#2D374C" transform="matrix(-1 1.22772e-16 -1.22465e-16 -1.00251 572.4 384.963)"/><path d="M0 0 17.0708 0 17.0708 17.0708-8.54482e-07 17.0708Z" fill="#2D374C" transform="matrix(-1 1.22772e-16 -1.22465e-16 -1.00251 572.4 430.993)"/><path d="M0 0 17.0708 0 17.0708 17.0708-8.54482e-07 17.0708Z" fill="#2D374C" transform="matrix(-1 1.22772e-16 -1.22465e-16 -1.00251 619.493 384.963)"/><path d="M0 0 17.0708 0 17.0708 17.0708-8.54482e-07 17.0708Z" fill="#2D374C" transform="matrix(-1 1.22772e-16 -1.22465e-16 -1.00251 619.493 430.993)"/><path d="M0 0 58.8549 0.0210261 58.873 58.873 0.0210261 58.8549Z" fill="#2D374C" transform="matrix(-0.706222 -0.707995 0.706222 -0.707995 471.549 676.628)"/><path d="M0 0 29.5876 0 29.5876 29.6096 0 29.6096Z" fill="#36868E" transform="matrix(-1 1.22772e-16 -1.22465e-16 -1.00251 486.343 649.786)"/><path d="M58.5703 0C90.9181 4.06946e-07 117.141 26.223 117.141 58.5708 117.141 90.9186 90.9181 117.142 58.5703 117.142L0 117.142 0 58.5703C-7.10534e-15 26.2228 26.2228-8.54482e-07 58.5703-8.54482e-07Z" fill="#F1E3CF" transform="matrix(1 0 0 1.00251 412.288 811.035)"/><path d="M35.0246 96.4809C54.3681 96.4809 70.0492 112.162 70.0492 131.505 70.0492 150.849 54.3681 166.53 35.0246 166.53L0 166.53 0 131.505C0 112.162 15.681 96.4809 35.0246 96.4809Z" fill="#2D374C" transform="matrix(1 0 0 1.00251 412.288 761.522)"/><path d="M82.494 45.5275C102.244 45.5275 118.255 61.538 118.255 81.288 118.255 101.038 102.244 117.049 82.494 117.049 62.744 117.049 46.7334 101.038 46.7334 81.288 46.7334 61.538 62.744 45.5275 82.494 45.5275Z" fill="#36868E" transform="matrix(1 0 0 1.00251 388.365 787.671)"/><path d="M98.0438 75.8991C109.605 75.8996 118.977 85.2725 118.977 96.8338 118.976 108.395 109.603 117.767 98.0418 117.767 86.4828 117.766 77.1118 108.397 77.1091 96.8378 77.1063 85.2765 86.4764 75.9018 98.0378 75.8991 98.0398 75.8991 98.0418 75.8991 98.0438 75.8991Z" fill="#2D374C" transform="matrix(1 0 0 1.00251 372.816 772.082)"/><path d="M58.5703 0 117.141 0 117.141 58.5703C117.14 90.9176 90.9176 117.14 58.5703 117.141L0 117.141 0 58.5703C-7.10534e-15 26.2228 26.2228-8.54482e-07 58.5703-8.54482e-07Z" fill="#36868E" transform="matrix(1 0 0 1.00251 295.146 693.6)"/><path d="M83.883 51.8584C102.902 51.7559 118.402 67.0904 118.505 86.1089 118.607 105.127 103.273 120.628 84.2541 120.731 84.1304 120.731 84.0067 120.731 83.883 120.731L49.4464 120.731 49.4464 86.299C49.4436 67.2807 64.8587 51.8611 83.877 51.8584 83.879 51.8584 83.881 51.8584 83.883 51.8584Z" fill="#2D374C" transform="matrix(1 0 0 1.00251 269.835 666.986)"/><path d="M155.744 0 179.173 0 179.173 23.4287C179.173 42.8374 163.439 58.5713 144.03 58.5713L120.599 58.5713 120.599 35.1426C120.599 15.7339 136.332 1.49905e-06 155.741 1.42833e-06 155.742 1.42833e-06 155.743 1.47101e-06 155.744 1.55638e-06Z" fill="#F1E3CF" transform="matrix(1 0 0 1.00251 233.41 693.6)"/><path d="M58.8653 0 117.142 0 117.142 58.2763C117.142 90.7867 90.7867 117.142 58.2763 117.142L0 117.142 0 58.8653C-7.10534e-15 26.3549 26.3549 1.12914e-06 58.8653 1.12914e-06Z" fill="#36868E" transform="matrix(6.12323e-17 -1.00251 1 6.1386e-17 529.43 928.471)"/><path d="M34.4356 0C53.4541-0.102487 68.9548 15.232 69.0573 34.2505 69.1597 53.269 53.8253 68.7697 34.8067 68.8722 34.683 68.8728 34.5593 68.8728 34.4356 68.8722L0 68.8722 0 34.4356C0 15.4173 15.4173 8.23965e-07 34.4356 8.23965e-07Z" fill="#2D374C" transform="matrix(6.12323e-17 -1.00251 1 6.1386e-17 554.741 904.276)"/><path d="M35.1426 0 58.5703 0 58.5703 23.4287C58.5697 42.8367 42.8367 58.5698 23.4287 58.5703L0 58.5703 0 35.1426C-7.10534e-15 15.7339 15.7339 1.55638e-06 35.1426 1.55638e-06Z" fill="#FF8B61" transform="matrix(6.12323e-17 -1.00251 1 6.1386e-17 529.43 869.458)"/><path d="M58.5703 0C90.9181 4.06946e-07 117.141 26.223 117.141 58.5708 117.141 90.9186 90.9181 117.142 58.5703 117.142L0 117.142 0 58.5703C-7.10534e-15 26.2228 26.2228-8.54482e-07 58.5703-8.54482e-07Z" fill="#F1E3CF" transform="matrix(-1 1.22772e-16 -1.22465e-16 -1.00251 646.57 693.6)"/><path d="M35.0246 0C54.3681 0 70.0492 15.681 70.0492 35.0246 70.0492 54.3681 54.3681 70.0492 35.0246 70.0492L0 70.0492 0 35.0246C0 15.681 15.681 1.52586e-06 35.0246 1.52586e-06Z" fill="#D33367" transform="matrix(-1 1.22772e-16 -1.22465e-16 -1.00251 646.57 646.389)"/><path d="M35.7606 0C55.5106-7.10534e-15 71.5211 16.0106 71.5211 35.7606 71.5211 55.5106 55.5106 71.5211 35.7606 71.5211 16.0106 71.5211 1.5869e-06 55.5106 1.5869e-06 35.7606 1.5869e-06 16.0106 16.0106 1.5869e-06 35.7606 1.5869e-06Z" fill="#36868E" transform="matrix(-1 1.22772e-16 -1.22465e-16 -1.00251 623.76 671.322)"/><path d="M20.9338 0C32.4951 0 41.8675 9.37236 41.8675 20.9338 41.8675 32.4951 32.4951 41.8675 20.9338 41.8675 9.37236 41.8675 1.52586e-08 32.4951 1.52586e-08 20.9338 1.52586e-08 9.37236 9.37236 1.52586e-08 20.9338 1.52586e-08Z" fill="#2D374C" transform="matrix(-1 1.22772e-16 -1.22465e-16 -1.00251 608.934 656.458)"/><path d="M98.4328 49.1934C98.4328 76.3622 76.3979 98.3868 49.2164 98.3868 22.0349 98.3868-9.46034e-07 76.3622-9.46034e-07 49.1934-9.46034e-07 22.0246 22.0349 2.44138e-07 49.2164 2.44138e-07 76.3979 2.44138e-07 98.4328 22.0246 98.4328 49.1934Z" fill="#F1E3CF" transform="matrix(1 0 0 1.00251 890.351 467.985)"/><path d="M179.022 0C179.062 32.1486 153.032 58.2425 120.884 58.2823 120.844 26.1337 146.873 0.0397896 179.022 1.05618e-06Z" fill="#D33367" transform="matrix(1 0 0 1.00251 818.972 458.729)"/><path d="M56.5843 0 58.2843 0 58.2843 1.69298C58.2462 32.9055 32.9126 58.1774 1.70006 58.1393L0 58.1393 0 56.4453C0.0386357 25.2332 25.3722-0.0381315 56.5843-8.54482e-07Z" fill="#36868E" transform="matrix(6.12323e-17 1.00251 -1 6.1386e-17 938.993 458.729)"/><path d="M56.4453 120.59 58.1383 120.59 58.1383 122.29C58.1753 153.501 32.9044 178.833 1.69298 178.872L0 178.872 0 177.172C-0.0370252 145.96 25.2339 120.628 56.4453 120.59Z" fill="#D33367" transform="matrix(1 0 0 1.00251 880.854 396.844)"/><path d="M56.5843 0 58.2843 0 58.2843 1.69298C58.2457 32.9052 32.9122 58.1764 1.69998 58.1383L0 58.1383 0 56.4453C0.0386357 25.2332 25.3722-0.0381315 56.5843-8.54482e-07Z" fill="#36868E" transform="matrix(6.12323e-17 1.00251 -1 6.1386e-17 997.995 517.736)"/><path d="M59.3993 0 118.556 0 88.9779 29.5786Z" fill="#FF8B61" transform="matrix(1 0 0 1.00251 381.881 458.729)"/><path d="M117.142 0 117.142 117.142 0 117.142Z" fill="#36868E" transform="matrix(1 0 0 1.00251 412.288 458.729)"/><path d="M0 0 117.142 117.142 0 117.142Z" fill="#F1E3CF" transform="matrix(1 0 0 1.00251 412.288 458.729)"/><path d="M118.556 208.977 59.3993 208.977 88.9779 179.398Z" fill="#36868E" transform="matrix(1 0 0 1.00251 264.74 718.97)"/><path d="M0 117.142 0 0 117.142 0Z" fill="#F1E3CF" transform="matrix(1 0 0 1.00251 295.146 811.035)"/><path d="M117.142 117.142 0 0 117.142 0Z" fill="#D33367" transform="matrix(1 0 0 1.00251 295.146 811.035)"/><path d="M0 0 59.1563 0 29.5786 29.5786Z" fill="#FF8B61" transform="matrix(-1 1.22772e-16 -1.22465e-16 -1.00251 735.012 811.035)"/><path d="M117.142 0 117.142 117.142 0 117.142Z" fill="#36868E" transform="matrix(-1 1.22772e-16 -1.22465e-16 -1.00251 764.005 811.035)"/><path d="M0 0 117.142 117.142 0 117.142Z" fill="#F1E3CF" transform="matrix(-1 1.22772e-16 -1.22465e-16 -1.00251 764.005 811.035)"/><path d="M59.3993 0 118.556 0 88.9779 29.5786Z" fill="#FF8B61" transform="matrix(1 0 0 1.00251 616.457 811.035)"/><path d="M117.142 0 117.142 117.142 0 117.142Z" fill="#36868E" transform="matrix(1 0 0 1.00251 646.863 811.035)"/><path d="M0 0 117.142 117.142 0 117.142Z" fill="#F1E3CF" transform="matrix(1 0 0 1.00251 646.863 811.035)"/></g></g></g></g></svg>